<svg xmlns="http://www.w3.org/2000/svg" xmlns:xlink="http://www.w3.org/1999/xlink" width="500" viewBox="0 0 375 374.999991" height="500" preserveAspectRatio="xMidYMid meet"><defs><clipPath id="c0da5a754a"><path d="M 12.769531 12.769531 L 362.269531 12.769531 L 362.269531 362.269531 L 12.769531 362.269531 Z M 12.769531 12.769531 " clip-rule="nonzero"></path></clipPath><clipPath id="3609a4c0b2"><path d="M 187.519531 12.769531 C 91.007812 12.769531 12.769531 91.007812 12.769531 187.519531 C 12.769531 284.03125 91.007812 362.269531 187.519531 362.269531 C 284.03125 362.269531 362.269531 284.03125 362.269531 187.519531 C 362.269531 91.007812 284.03125 12.769531 187.519531 12.769531 " clip-rule="nonzero"></path></clipPath><clipPath id="930653a6b3"><path d="M 91.933594 94.367188 L 283.183594 94.367188 L 283.183594 280.367188 L 91.933594 280.367188 Z M 91.933594 94.367188 " clip-rule="nonzero"></path></clipPath></defs><g clip-path="url(#c0da5a754a)"><g clip-path="url(#3609a4c0b2)"><path stroke-linecap="butt" transform="matrix(0.750101, 0, 0, 0.750101, 12.770504, 12.770507)" fill="none" stroke-linejoin="miter" d="M 232.967474 -0.00130072 C 104.30243 -0.00130072 -0.00129712 104.302426 -0.00129712 232.967471 C -0.00129712 361.632515 104.30243 465.936242 232.967474 465.936242 C 361.632519 465.936242 465.936246 361.632515 465.936246 232.967471 C 465.936246 104.302426 361.632519 -0.00130072 232.967474 -0.00130072 " stroke="#0e4e07" stroke-width="12" stroke-opacity="1" stroke-miterlimit="4"></path></g></g><g clip-path="url(#930653a6b3)"><path fill="#0e4e07" d="M 115.875 94.367188 L 113.484375 99.136719 L 138.574219 113.445312 C 138.574219 125.367188 133.796875 134.90625 123.042969 140.867188 L 97.953125 126.558594 L 96.757812 128.945312 C 102.730469 146.828125 114.679688 158.75 138.574219 158.75 C 144.546875 158.75 162.46875 176.636719 172.027344 186.175781 L 191.144531 167.097656 C 181.585938 157.558594 160.082031 136.097656 160.082031 130.136719 C 160.082031 108.675781 154.105469 94.367188 115.875 94.367188 Z M 265.21875 100.328125 L 241.324219 117.019531 L 238.933594 126.558594 L 169.636719 195.714844 L 160.082031 189.75 L 155.300781 194.519531 C 155.300781 208.828125 138.574219 215.984375 131.40625 215.984375 L 91.980469 255.328125 C 91.980469 267.25 105.121094 280.367188 117.070312 280.367188 L 156.496094 241.019531 C 156.496094 233.867188 163.664062 217.175781 178 217.175781 L 182.78125 212.40625 L 176.808594 202.867188 L 246.101562 133.714844 L 255.660156 131.328125 L 272.386719 107.484375 Z M 205.480469 181.40625 L 186.363281 200.484375 C 200.703125 214.789062 219.820312 233.867188 219.820312 239.828125 C 219.820312 261.289062 225.792969 275.597656 264.023438 275.597656 L 266.414062 270.828125 L 241.324219 256.519531 C 241.324219 244.597656 246.101562 235.058594 256.855469 229.097656 L 281.945312 243.40625 L 283.140625 241.019531 C 277.167969 223.136719 265.21875 211.214844 241.324219 211.214844 C 235.351562 211.214844 219.820312 195.714844 205.480469 181.40625 Z M 205.480469 181.40625 " fill-opacity="1" fill-rule="nonzero"></path></g></svg>